<svg xmlns="http://www.w3.org/2000/svg" xmlns:xlink="http://www.w3.org/1999/xlink" x="0px" y="0px" width="58px" height="55px" viewBox="0 0 58 55" enable-background="new 0 0 58 55" xml:space="preserve">
<g>
<path fill="#464646" d="M16.597,54.655c-1.764,0-3.536-0.457-5.144-1.382c-4.83-2.789-8.291-7.292-9.745-12.681
		C0.25,35.186,0.99,29.537,3.792,24.685c1.386-2.402,3.189-4.462,5.355-6.122l1.354-1.037l-0.045,1.704
		c-0.152,5.702,3.025,8.55,10.701,15.429c0.773,0.693,1.589,1.424,2.448,2.201c1.674,1.56,2.787,3.66,3.144,5.921
		c0.363,2.297-0.075,4.675-1.232,6.694l-1.411-0.809c2.005-3.498,1.347-7.861-1.601-10.608c-0.849-0.767-1.663-1.497-2.434-2.188
		C12.961,29.5,9.358,26.27,8.877,20.908c-1.444,1.32-2.677,2.857-3.677,4.59c-2.583,4.476-3.266,9.685-1.921,14.67
		c1.341,4.971,4.532,9.125,8.986,11.696c2.707,1.558,5.969,1.537,8.616,0.021c-3.721-2.186-6.787-5.116-9.117-8.711
		c-2.259-3.488-3.717-7.519-4.215-11.658l1.615-0.194c0.979,8.14,5.615,15.162,12.719,19.264c0.269,0.155,0.553,0.306,0.828,0.453
		l1.21,0.646l-0.982,0.77C21.08,53.913,18.846,54.655,16.597,54.655z"></path>
</g>
<g>
<rect x="6.248" y="43.728" transform="matrix(0.9211 0.3893 -0.3893 0.9211 18.2035 -0.7475)" fill="#464646" width="9.396" height="1.626"></rect>
</g>
<g>
<rect x="15.182" y="36.09" fill="#464646" width="1.626" height="4.733"></rect>
</g>
<g>
<path fill="#464646" d="M36.109,54.652c-2.773,0-5.458-0.531-7.979-1.577l-1.575-0.653l1.5-0.813
		c5.014-2.719,5.891-6.895,8.011-16.982c0.213-1.016,0.439-2.088,0.682-3.221c0.514-2.229,1.776-4.243,3.556-5.683
		c1.809-1.463,4.086-2.273,6.414-2.28l0.005,1.627c-4.032,0.012-7.481,2.763-8.387,6.689c-0.239,1.119-0.464,2.188-0.677,3.202
		c-1.963,9.342-2.958,14.078-7.362,17.175c1.864,0.591,3.814,0.89,5.813,0.89c10.644,0,19.302-8.659,19.302-19.301
		c-0.005-3.124-1.653-5.938-4.29-7.473c-0.033,4.315-1.037,8.436-2.986,12.251c-1.89,3.701-4.653,6.979-7.988,9.479l-0.976-1.302
		c6.561-4.917,10.323-12.443,10.323-20.646c0-0.313-0.011-0.637-0.021-0.95l-0.046-1.366l1.158,0.466
		c3.914,1.574,6.446,5.318,6.452,9.539C57.038,45.264,47.65,54.652,36.109,54.652z"></path>
</g>
<g>
<rect x="45.031" y="37.714" transform="matrix(0.1234 0.9924 -0.9924 0.1234 81.8241 -15.5761)" fill="#464646" width="9.396" height="1.627"></rect>
</g>
<g>
<rect x="41.122" y="34.831" transform="matrix(0.5002 0.8659 -0.8659 0.5002 53.1708 -17.7207)" fill="#464646" width="1.627" height="4.733"></rect>
</g>
<g>
<path fill="#464646" d="M23.092,22.946c-1.258,0-2.516-0.229-3.701-0.684c-2.171-0.835-4.011-2.403-5.181-4.415l1.406-0.817
		c2.027,3.485,6.134,5.096,9.987,3.918c1.088-0.352,2.127-0.692,3.111-1.014c9.072-2.971,13.671-4.478,18.555-2.212
		c-0.421-1.911-1.137-3.748-2.136-5.479c-2.584-4.475-6.754-7.671-11.745-8.999C28.413,1.919,23.22,2.607,18.767,5.178
		c-2.702,1.565-4.315,4.4-4.326,7.451c3.754-2.129,7.824-3.32,12.103-3.54c4.151-0.214,8.371,0.54,12.203,2.179l-0.639,1.495
		c-7.54-3.223-15.938-2.718-23.043,1.384c-0.271,0.156-0.545,0.328-0.811,0.493l-1.161,0.723l-0.175-1.236
		C12.324,9.951,14.3,5.885,17.952,3.77c4.83-2.789,10.461-3.534,15.855-2.098c5.41,1.44,9.933,4.905,12.734,9.758
		c1.388,2.402,2.27,4.992,2.625,7.699l0.222,1.69l-1.454-0.892c-4.862-2.983-8.916-1.655-18.712,1.553
		c-0.986,0.323-2.027,0.664-3.13,1.02C25.117,22.798,24.104,22.946,23.092,22.946z"></path>
</g>
<g>
<rect x="24.955" y="3" transform="matrix(0.603 0.7978 -0.7978 0.603 16.3714 -17.5011)" fill="#464646" width="1.627" height="9.395"></rect>
</g>
<g>
<rect x="26.146" y="14.299" transform="matrix(0.8659 0.5001 -0.5001 0.8659 11.3801 -12.2344)" fill="#464646" width="4.733" height="1.626"></rect>
</g>
</svg>