<svg xmlns="http://www.w3.org/2000/svg" xmlns:xlink="http://www.w3.org/1999/xlink" x="0px" y="0px" width="56px" height="55px" viewBox="0 0 56 55" enable-background="new 0 0 56 55" xml:space="preserve">
<g>
<path fill="#464646" d="M32.531,45.292h-7.498V43.4c0-2.279,1.854-4.134,4.134-4.134h0.225c-0.54-4.02,0.836-8.106,3.714-10.984
		l1.09,1.09c-2.602,2.604-3.812,6.327-3.236,9.962l0.228,1.474h-2.02c-1.43,0-2.592,1.163-2.592,2.593v0.35h5.956
		c4.673,0,8.197-4.367,8.197-10.159c0-5.382-3.354-9.598-7.637-9.598h-0.56v-1.542h0.56c5.146,0,9.178,4.894,9.178,11.14
		C42.269,40.262,38.082,45.292,32.531,45.292z"></path>
</g>
<g>
<path fill="#464646" d="M18.018,32.667c-0.475-0.884-0.747-1.827-0.807-2.805l-0.314-4.444c-0.006-0.107-0.063-0.197-0.151-0.248
		l-0.029-0.017c-0.075-0.047-0.18-0.047-0.283,0.001l-1.673,0.781c-0.402,0.199-0.835,0.301-1.287,0.301
		c-1.661,0-3.013-1.352-3.013-3.013c0-3.981,3.119-7.247,7.042-7.483l4.921-8.613l0.678,1.126c1.923,3.198,1.48,7.319-1,10.078
		l0.829,0.943c1.349,1.533,3.192,2.601,5.189,3.004l-0.306,1.511c-2.325-0.47-4.471-1.712-6.042-3.497l-1.794-2.042l0.547-0.51
		c2.055-1.917,2.74-4.862,1.851-7.42l-3.972,6.949h-0.447c-3.284,0-5.955,2.672-5.955,5.956c0,0.812,0.66,1.472,1.471,1.472
		c0.217,0,0.415-0.046,0.608-0.143l0.018-0.009l1.682-0.785c0.574-0.268,1.224-0.237,1.743,0.083
		c0.532,0.31,0.872,0.861,0.911,1.476l0.314,4.444c0.046,0.76,0.258,1.492,0.627,2.178L18.018,32.667z"></path>
</g>
<g>
<path fill="#464646" d="M22.441,45.292h-5.254V43.4c0-2.016,1.45-3.7,3.362-4.062v-4.907h1.542v6.375H21.32
		c-1.429,0-2.592,1.163-2.592,2.593v0.35h3.713V45.292z"></path>
</g>
<g>
<path fill="#464646" d="M28.021,54.25c-5.677,0-11.372-1.808-16.14-5.486c-0.889-0.675-1.768-1.445-2.607-2.285l-0.545-0.545
		L45.176,9.487c-0.62-0.584-1.257-1.125-1.902-1.615c-9.907-7.642-24.054-6.716-32.91,2.151C1.496,18.88,0.57,33.026,8.209,42.929
		l-1.221,0.942C-1.122,33.355-0.14,18.336,9.274,8.934C18.676-0.479,33.695-1.462,44.21,6.649c0.889,0.675,1.768,1.445,2.608,2.285
		l0.546,0.544L10.917,45.926c0.619,0.583,1.257,1.125,1.902,1.613c9.908,7.643,24.054,6.717,32.91-2.15
		c8.867-8.856,9.793-23.003,2.155-32.906l1.22-0.942c8.111,10.515,7.128,25.535-2.286,34.938
		C41.68,51.624,34.863,54.25,28.021,54.25z"></path>
</g>
</svg>