<svg xmlns="http://www.w3.org/2000/svg" xmlns:xlink="http://www.w3.org/1999/xlink" x="0px" y="0px" width="55.75px" height="55px" viewBox="0 0 55.75 55" enable-background="new 0 0 55.75 55" xml:space="preserve">
<g>
<g>
<rect x="27.064" y="10.812" fill="#464646" width="1.521" height="22.124"></rect>
</g>
<g>
<path fill="#464646" d="M28.261,29.133l-0.872-1.246c3.953-2.765,6.313-7.287,6.313-12.097c0-4.632-2.187-8.996-5.877-11.782
			c-3.689,2.784-5.876,7.148-5.876,11.782c0,3.305,1.121,6.543,3.155,9.118l-1.194,0.943c-2.245-2.843-3.482-6.416-3.482-10.062
			c0-5.309,2.603-10.298,6.961-13.345l0.436-0.305l0.436,0.305c4.359,3.049,6.961,8.037,6.961,13.344
			C35.222,21.096,32.62,26.085,28.261,29.133z"></path>
</g>
<g>
<path fill="#464646" d="M28.585,53.952h-1.521v-9.469c0-3.622-1.479-7.157-4.059-9.699l-5.85-5.767l-4.722-8.649
			c-0.363-0.658-1.02-1.053-1.755-1.053c-1.106,0-2.005,0.899-2.005,2.004c0,0.318,0.086,0.641,0.255,0.962l6.632,12.159
			l-1.335,0.728L7.589,23.001c-0.291-0.551-0.436-1.113-0.436-1.681c0-1.943,1.582-3.525,3.526-3.525
			c1.278,0,2.462,0.706,3.088,1.842l4.616,8.455l5.689,5.608c2.868,2.827,4.512,6.757,4.512,10.783V53.952z"></path>
</g>
<g>
<path fill="#464646" d="M13.099,15.237h-1.521v-8.85c0-2.021-1.643-3.664-3.664-3.664H7.568v4.062H6.047V1.202h1.867
			c2.859,0,5.185,2.326,5.185,5.185V15.237z"></path>
</g>
<g>
<path fill="#464646" d="M17.523,19.661h-1.521v-8.849c0-2.021-1.644-3.665-3.665-3.665V5.626c2.859,0,5.185,2.326,5.185,5.186
			V19.661z"></path>
</g>
<g>
<path fill="#464646" d="M15.312,53.952H13.79v-5.91c0-0.979-0.381-1.899-1.073-2.591l-8.604-8.604
			c-1.606-1.607-2.49-3.742-2.49-6.015V4.521h1.867c2.859,0,5.185,2.326,5.185,5.185v5.531H7.153V9.706
			c0-2.021-1.644-3.664-3.664-3.664H3.143v24.791c0,1.866,0.726,3.62,2.045,4.938l8.604,8.604c0.979,0.98,1.519,2.282,1.519,3.667
			V53.952z"></path>
</g>
<g>
<path fill="#464646" d="M28.585,53.952h-1.521v-9.469c0-4.026,1.645-7.956,4.512-10.783l5.689-5.608l4.615-8.453
			c0.627-1.139,1.811-1.845,3.089-1.845c1.944,0,3.526,1.582,3.526,3.525c0,0.567-0.145,1.13-0.431,1.671l-6.642,12.177
			l-1.335-0.728l6.637-12.167c0.164-0.312,0.25-0.635,0.25-0.953c0-1.105-0.9-2.004-2.006-2.004c-0.735,0-1.392,0.395-1.756,1.056
			l-4.721,8.646l-5.849,5.767c-2.58,2.542-4.059,6.077-4.059,9.699V53.952z"></path>
</g>
<g>
<path fill="#464646" d="M44.071,15.237H42.55v-8.85c0-2.859,2.326-5.185,5.185-5.185h1.867v5.583h-1.521V2.723h-0.346
			c-2.021,0-3.664,1.644-3.664,3.664V15.237z"></path>
</g>
<g>
<path fill="#464646" d="M39.647,19.661h-1.521v-8.849c0-2.859,2.326-5.186,5.185-5.186v1.521c-2.021,0-3.664,1.644-3.664,3.665
			V19.661z"></path>
</g>
<g>
<path fill="#464646" d="M41.859,53.952h-1.521v-5.91c0-1.385,0.54-2.687,1.519-3.667l8.604-8.604
			c1.319-1.318,2.045-3.072,2.045-4.938V6.042H52.16c-2.021,0-3.664,1.643-3.664,3.664v5.531h-1.521V9.706
			c0-2.859,2.326-5.185,5.185-5.185h1.867v26.313c0,2.272-0.885,4.407-2.491,6.015l-8.604,8.604
			c-0.692,0.691-1.073,1.611-1.073,2.591V53.952z"></path>
</g>
</g>
</svg>