<svg xmlns="http://www.w3.org/2000/svg" xmlns:xlink="http://www.w3.org/1999/xlink" x="0px" y="0px" width="57px" height="55px" viewBox="0 0 57 55" enable-background="new 0 0 57 55" xml:space="preserve">
<g>
<rect x="34.926" y="12.508" transform="matrix(0.8663 0.4995 -0.4995 0.8663 13.557 -15.4964)" fill="#464646" width="1.609" height="10.145"></rect>
</g>
<g>
<rect x="9.263" y="38.628" transform="matrix(0.9039 0.4277 -0.4277 0.9039 18.3922 -3.0049)" fill="#464646" width="13.242" height="1.609"></rect>
</g>
<g>
<polygon fill="#464646" points="17.522,30.111 6.321,24.812 7.01,23.357 16.756,27.969 21.367,18.223 22.822,18.912 	"></polygon>
</g>
<g>
<path fill="#464646" d="M49.404,54.158H31.409v-2.437c0-0.907-0.45-1.749-1.205-2.252c-3.643-2.429-5.817-6.492-5.817-10.87v-5.948
		h32.039V38.6c0,4.378-2.175,8.441-5.817,10.87c-0.754,0.503-1.205,1.345-1.205,2.252V54.158z M33.018,52.549h14.776v-0.827
		c0-1.446,0.718-2.789,1.922-3.591c3.193-2.129,5.101-5.692,5.101-9.531v-4.338H25.996V38.6c0,3.839,1.907,7.401,5.101,9.531
		c1.204,0.802,1.922,2.145,1.922,3.591V52.549z"></path>
</g>
<g>
<path fill="#464646" d="M45.25,48.972l-1.494-0.599c0.678-1.693,1.841-3.124,3.362-4.138c1.889-1.258,3.016-3.364,3.016-5.635
		v-1.632h1.609V38.6c0,2.81-1.396,5.417-3.732,6.974C46.762,46.407,45.808,47.582,45.25,48.972z"></path>
</g>
<g>
<path fill="#464646" d="M19.339,54.158c-3.183,0-6.228-0.959-8.805-2.773c-2.488-1.751-4.433-4.21-5.622-7.113
		C2.375,38.11,1.052,31.718,0.979,25.273C0.884,16.949,2.95,8.717,6.954,1.467l0.368-0.666l0.685,0.329
		c6.806,3.267,12.628,7.873,17.305,13.691c4.539,5.647,6.997,11.199,8.259,14.862l-1.521,0.524
		c-1.928-5.595-8.104-19.334-24.051-27.29c-3.63,6.842-5.5,14.547-5.411,22.337c0.07,6.239,1.354,12.432,3.813,18.405
		c2.247,5.482,7.204,8.888,12.938,8.888c1.739,0,3.424-0.308,5.021-0.916l-12.8-35.459l1.514-0.546L26.39,52.516l-0.685,0.304
		C23.699,53.708,21.558,54.158,19.339,54.158z"></path>
</g>
<g>
<path fill="#464646" d="M36.002,28.002l-0.789-1.403c2.403-1.35,4.412-3.335,5.808-5.741c2.453-4.257,2.756-9.414,0.844-13.904
		c-4.853,0.598-9.164,3.44-11.611,7.687c-0.188,0.322-0.368,0.658-0.523,0.978l-1.449-0.7c0.175-0.363,0.37-0.729,0.58-1.087
		c2.802-4.862,7.823-8.057,13.429-8.541l0.559-0.048l0.239,0.507c2.39,5.084,2.137,11.033-0.675,15.913
		C40.872,24.32,38.655,26.511,36.002,28.002z"></path>
</g>
</svg>