<svg xmlns="http://www.w3.org/2000/svg" xmlns:xlink="http://www.w3.org/1999/xlink" x="0px" y="0px" width="53px" height="55px" viewBox="0 0 53 55" enable-background="new 0 0 53 55" xml:space="preserve">
<g>
<rect x="18.792" y="8.448" transform="matrix(0.7074 0.7068 -0.7068 0.7074 29.4349 -3.968)" fill="#464646" width="1.437" height="50.246"></rect>
</g>
<g>
<rect x="8.345" y="17.897" fill="#464646" width="1.437" height="26.124"></rect>
</g>
<g>
<path fill="#464646" d="M5.325,34.843c-3.438-5.25-4.995-14.58-0.292-22.658C7.686,7.634,8.34,2.194,8.347,2.14l1.427,0.166
		C9.747,2.54,9.077,8.1,6.275,12.908c-4.396,7.55-2.952,16.255,0.252,21.147L5.325,34.843z"></path>
</g>
<g>
<path fill="#464646" d="M9.462,38.349l-0.797-1.196c4.968-3.312,8.772-14.672,3.187-24.248C9.992,9.718,9.041,5.787,8.356,2.363
		l1.409-0.282c0.661,3.308,1.574,7.094,3.327,10.1c2.664,4.565,3.57,10.029,2.552,15.385C14.736,32.343,12.425,36.374,9.462,38.349z
		"></path>
</g>
<g>
<rect x="9.061" y="43.302" fill="#464646" width="26.124" height="1.437"></rect>
</g>
<g>
<path fill="#464646" d="M50.777,44.734c-0.234-0.027-5.795-0.697-10.604-3.499c-7.55-4.396-16.254-2.951-21.148,0.252l-0.787-1.203
		c5.251-3.438,14.581-4.995,22.658-0.291c4.551,2.652,9.991,3.307,10.045,3.313L50.777,44.734z"></path>
</g>
<g>
<path fill="#464646" d="M29.818,51.008c-1.429,0-2.87-0.134-4.304-0.407c-4.776-0.908-8.806-3.218-10.782-6.181l1.196-0.797
		c3.312,4.967,14.672,8.772,24.248,3.186c3.181-1.855,7.114-2.807,10.542-3.492L51,44.726c-3.312,0.662-7.102,1.575-10.1,3.324
		C37.556,50,33.73,51.008,29.818,51.008z"></path>
</g>
<g>
<path fill="#464646" d="M20.835,35.557c-0.876,0-1.718-0.078-2.511-0.237l0.282-1.409c7.603,1.52,21.522-5.4,25.18-19.296
		c1.807-6.869,5.306-11.583,5.454-11.78l1.149,0.863l-0.575-0.432l0.575,0.431c-0.035,0.046-3.482,4.698-5.214,11.283
		c-1.717,6.523-5.831,12.273-11.585,16.189C29.459,33.981,24.791,35.557,20.835,35.557z"></path>
</g>
<g>
<path fill="#464646" d="M19.034,30.658l-1.429-0.151c0.908-8.575,8.401-19.411,20.5-22.605c4.044-1.061,7.321-2.577,11.311-5.232
		l0.796,1.195c-4.132,2.751-7.534,4.323-11.741,5.426C26.995,12.322,19.89,22.562,19.034,30.658z"></path>
</g>
<g>
<polygon fill="#464646" points="33.095,26.975 26.107,26.975 26.107,19.986 27.543,19.986 27.543,25.538 33.095,25.538 	"></polygon>
</g>
<g>
<polygon fill="#464646" points="37.274,21.75 31.332,21.75 31.332,15.807 32.768,15.807 32.768,20.313 37.274,20.313 	"></polygon>
</g>
</svg>