<svg xmlns="http://www.w3.org/2000/svg" xmlns:xlink="http://www.w3.org/1999/xlink" x="0px" y="0px" width="51.333px" height="55px" viewBox="0 0 51.333 55" enable-background="new 0 0 51.333 55" xml:space="preserve">
<g>
<path fill="#464646" d="M18.99,41.363c-0.344,0-0.697-0.014-1.061-0.041l0.117-1.547c2.617,0.196,4.535-0.371,5.864-1.733
		c1.976-2.025,2.709-5.873,2.236-11.745c-0.873,0.322-1.799,0.619-2.764,0.927c-3.702,1.185-7.53,2.409-8.858,5.286
		c-0.834,1.807-0.631,4.14,0.62,7.133l-1.432,0.599c-1.428-3.417-1.624-6.158-0.597-8.382c1.614-3.496,5.96-4.886,9.795-6.113
		c1.302-0.416,2.532-0.81,3.617-1.264l0.967-0.404l0.104,1.043c0.694,6.935-0.148,11.516-2.576,14.005
		C23.571,40.613,21.545,41.363,18.99,41.363z"></path>
</g>
<g>
<path fill="#464646" d="M11.669,44.817l-1.291-0.861c4.557-6.837,8.028-10.308,11.384-13.664l1.098,1.097
		C19.556,34.693,16.142,38.108,11.669,44.817z"></path>
</g>
<g>
<path fill="#464646" d="M20.054,54.192c-10.386,0-18.836-8.45-18.836-18.836c0-6.145,2-9.105,10.418-21.563
		c2.096-3.103,4.706-6.964,7.771-11.599l0.647-0.979l0.647,0.979c3.036,4.591,5.617,8.425,7.692,11.506
		C37.287,26.914,38.89,29.295,38.89,35.356C38.89,45.742,30.44,54.192,20.054,54.192z M20.054,4.027
		c-2.792,4.209-5.183,7.749-7.132,10.634C4.518,27.098,2.77,29.686,2.77,35.356c0,9.531,7.753,17.285,17.284,17.285
		c9.53,0,17.284-7.754,17.284-17.285c0-5.587-1.562-7.908-10.232-20.789C25.178,11.705,22.814,8.193,20.054,4.027z"></path>
</g>
<g>
<path fill="#464646" d="M40.942,29.937l-0.577-1.441c2.275-0.91,3.745-3.072,3.745-5.51h1.552
		C45.662,26.061,43.809,28.789,40.942,29.937z"></path>
</g>
<g>
<path fill="#464646" d="M41.682,34.462l-0.454-1.484c4.424-1.355,7.397-5.372,7.397-9.993c0-3.38-0.843-4.626-6.327-12.737
		c-1.152-1.704-2.554-3.777-4.185-6.223c-1.651,2.48-3.073,4.572-4.242,6.292c-0.812,1.195-1.514,2.227-2.134,3.155l-1.291-0.862
		c0.624-0.933,1.326-1.968,2.141-3.166c1.316-1.937,2.954-4.347,4.878-7.25l0.646-0.975l0.647,0.974
		c1.905,2.869,3.524,5.262,4.824,7.186c5.586,8.262,6.593,9.75,6.593,13.606c0,2.619-0.831,5.107-2.402,7.197
		C46.255,32.204,44.091,33.724,41.682,34.462z"></path>
</g>
</svg>